<svg xmlns="http://www.w3.org/2000/svg" viewBox="0 0 460.77 460.74"><defs><style>.cls-1{fill:#eaa236;}</style></defs><g id="Layer_2" data-name="Layer 2"><g id="Capa_1" data-name="Capa 1"><path class="cls-1" d="M285.08,230.38,456.22,59.26a15.55,15.55,0,0,0,0-22L423.51,4.55a15.55,15.55,0,0,0-22,0L230.39,175.69,59.25,4.55a15.56,15.56,0,0,0-22,0L4.56,37.27a15.54,15.54,0,0,0,0,22L175.7,230.38,4.57,401.49a15.55,15.55,0,0,0,0,22l32.71,32.71a15.56,15.56,0,0,0,22,0L230.39,285.07,401.5,456.19a15.56,15.56,0,0,0,22,0l32.71-32.71a15.55,15.55,0,0,0,0-22Z"/></g></g></svg>