<svg xmlns="http://www.w3.org/2000/svg" width="111.604" height="98.18" viewBox="0 0 111.604 98.18">
  <path id="ScribbleHeart1SVG" d="M120.14,50.919c-.592-.684-1.313-.7-2.181,0q-8.874,7.376-17.729,14.753c-.2.166-.407.333-.629.5-.018-.2.037-.3.111-.351q7.21-6.628,14.438-13.274c1.534-1.405,3.069-2.847,4.585-4.271a1.374,1.374,0,0,0,.277-2,1.6,1.6,0,0,0-2.163-.3,3.434,3.434,0,0,0-.5.407c-5.121,4.234-10.2,8.5-15.344,12.719Q89.359,68.676,77.656,78.188c-1.424,1.165-2.884,2.274-4.344,3.4a1.036,1.036,0,0,1,.333-.61L101.653,57.39a145.167,145.167,0,0,0,14.494-12.22l2.847-2.755h0a1.542,1.542,0,0,0-.2-2.181c-.61-.573-1.183-.592-2.108,0h0L94.757,57.574c-.018.018-.055-.018-.037-.037l23.4-20.705a1.94,1.94,0,0,0,0-2.644,1.41,1.41,0,0,0-2.181-.092c-5.417,4.326-10.907,8.578-16.232,13.033C91.984,53.581,84.4,60.237,76.677,66.689c-5.62,4.7-11.37,9.207-17.045,13.81-.222.185-.481.333-.721.5a.484.484,0,0,1,.166-.425c5.1-4.437,10.131-8.911,15.307-13.255C79.69,62.862,85.162,58.554,90.5,54.154,96.79,48.978,103,43.709,108.807,38c2.181-2.145,4.289-4.363,6.4-6.563a1.456,1.456,0,0,0-.074-2.255,1.78,1.78,0,0,0-2.274.166c-1.4,1.165-2.792,2.329-4.2,3.513-.887.739-1.756,1.479-2.644,2.218a.992.992,0,0,1,.333-.573q3.05-3.244,6.082-6.507c.555-.61,1.091-1.257,1.59-1.9a1.729,1.729,0,0,0-.037-2.218,1.447,1.447,0,0,0-2.034-.129c-1.165.721-2.311,1.442-3.476,2.181-.629.407-1.257.813-1.9,1.22-.018.018-.055-.018-.037-.037a28.44,28.44,0,0,1,2.792-2.607,1.287,1.287,0,0,0,.462-1.571,1.366,1.366,0,0,0-1.442-.943,2.312,2.312,0,0,0-1.054.3q-4.243,2.551-8.43,5.139c-.813.5-1.608,1.054-2.4,1.59-.037-.055-.092-.111-.129-.166l.333-.222c2.884-2.366,5.749-4.733,8.633-7.1a1.679,1.679,0,0,0,.555-2.311c-.481-.7-1.239-.813-2.2-.259-1.571.924-3.143,1.867-4.714,2.792h0l-.222-.351a.724.724,0,0,0,.185-.148c.961-.924,1.923-1.867,2.865-2.81.7-.7.795-1.368.333-2a1.394,1.394,0,0,0-2-.3c-3.346,2.015-6.822,3.864-10,6.119h0L56.822,48.682,34.508,65.764c5.694-4.788,11.37-9.225,17.119-13.976,6.822-5.657,13.754-11.185,20.558-16.9C79.191,28.994,86.123,23,93.537,17.606c.407-.3.832-.592,1.22-.906a1.57,1.57,0,0,0,.333-2.034c-.444-.666-1.793-.24-2.459.074h0L55.343,43.672,85.292,18.1a1.566,1.566,0,0,0-.092-2.181c-.5-.629-1.146-.7-1.978-.092-4.086,2.995-8.264,5.879-12.183,9.059-6.9,5.583-13.606,11.388-20.428,17.027C45.1,46.464,39.5,50.938,33.935,55.43c-.481.388-1.017.739-1.516,1.091a1.155,1.155,0,0,1,.407-.7L61.5,30.362h0a15.592,15.592,0,0,0,.906-1.423,2.1,2.1,0,0,0-3.161-2.588c-.481.5-.961,1.017-1.442,1.5A243.742,243.742,0,0,1,37.429,46.039c-1.109.906-2.218,1.793-3.328,2.7-.055-.055-.092-.111-.148-.166l.721-.61C41.2,41.99,47.744,36.037,54.233,30.047c1.849-1.7,3.6-3.531,5.38-5.306a1.344,1.344,0,0,0,.092-1.941,1.642,1.642,0,0,0-2.218.018L36.837,41.232a4.3,4.3,0,0,1-.481.314.829.829,0,0,1,.277-.5c2.422-2.44,4.862-4.825,7.247-7.3,3.753-3.9,7.432-7.857,11.148-11.795.7-.739.7-1.424.129-1.96-.592-.555-1.22-.5-1.978.185-1.775,1.59-3.531,3.2-5.324,4.77-1.664,1.46-3.346,2.884-5.028,4.326-.037-.055-.092-.092-.129-.148l1.756-1.7q4.1-4.021,8.19-8.06c.776-.776.536-1.923-.5-2.089a1.825,1.825,0,0,0-1.35.425c-3.864,3.328-7.672,6.877-11.517,10.223-.444.388-6.1,5.287-6.563,5.639.333-.555,5.971-5.712,6.415-6.119l9.761-9.207c.647-.629.721-1.2.259-1.756a1.3,1.3,0,0,0-1.923-.111c-.3.222-.573.5-.869.721Q38.205,23.6,30.034,30.14c-1.294,1.035-2.607,2.015-3.9,3.032a1.256,1.256,0,0,1,.388-.666c.98-.961,1.923-1.941,2.958-2.847,4.936-4.363,9.909-8.689,14.864-13.033.666-.592.776-1.183.314-1.812a1.144,1.144,0,0,0-1.812-.166c-2.089,1.627-4.2,3.254-6.267,4.9-1.109.869-2.181,1.756-3.291,2.644-.018.018-.055-.018-.037-.037l6.119-6.008c.666-.629.758-1.128.3-1.664a1.257,1.257,0,0,0-1.793-.074c-.924.739-1.812,1.5-2.736,2.255l-6.47,5.269c-.018.018-.055-.018-.037-.037l5.084-5.139a.992.992,0,0,0,.092-1.442.924.924,0,0,0-1.405-.166,6.862,6.862,0,0,0-.592.425c-3.882,3.124-7.728,6.3-11.554,9.484-.61.5-1.2,1.017-1.793,1.534a2.614,2.614,0,0,1,.721-1.035c2.459-2.4,4.9-4.788,7.376-7.173a.927.927,0,0,0,.129-1.405c-.407-.481-.887-.388-1.35-.018-1.017.758-2.015,1.516-3.013,2.274h0l-9.059,7.986c-.314.3-.776.869-.555,1.2.629.943,2.385-.259,2.81-.555.018-.018.037.018.037.037-.795,1.054-3.383,3.42-4.141,4.474-.37.518-.518,1.035,0,1.516a1.047,1.047,0,0,0,1.516-.074c1.183-.961,2.4-1.886,3.6-2.829a3.781,3.781,0,0,1,.573-.37h.037c.055.074.111.129.166.2v.037c-.7.721-1.387,1.442-2.108,2.126-1.775,1.682-3.568,3.328-5.324,5.01-.629.61-.647,1.165-.148,1.682a1.2,1.2,0,0,0,1.719-.129l9.854-8.282-7.691,7.617c-1.424,1.5-2.884,2.958-4.271,4.474a1.474,1.474,0,0,0-.333,1.257c.129.351.684.555,1.072.795a2.19,2.19,0,0,0,.481.074c.018,0,.037.018.018.037-.388.444-.721.813-1.017,1.2a1.156,1.156,0,0,0,.055,1.608,1.175,1.175,0,0,0,1.664.148c.222-.148.425-.333.629-.5,2.625-2.2,5.269-4.4,7.894-6.581.259-.222.555-.425.832-.629a4.206,4.206,0,0,1-.813,1.035c-2.755,2.607-5.528,5.213-8.282,7.838A1.4,1.4,0,0,0,11.27,51.7c.5.555,1.054.555,1.9-.092,3.383-2.607,6.8-5.176,10.242-7.746.185-.129.37-.24.555-.351a5.562,5.562,0,0,1-1.035,1.22c-3.586,3.309-7.173,6.6-10.759,9.909-.684.629-.776,1.146-.3,1.738a1.318,1.318,0,0,0,1.923.185c.222-.148.425-.333.629-.5Q23,49.015,31.55,41.953c.2-.166.425-.314.647-.462a.718.718,0,0,1-.277.536c-3.55,3.309-7.062,6.655-10.649,9.909-2.829,2.57-5.768,5.047-8.67,7.543a1.27,1.27,0,0,0-.481,1.553,1.221,1.221,0,0,0,2.015.555q4.215-3.134,8.43-6.3c.684-.518,1.405-1.017,2.089-1.516.018-.018.037,0,.037.018a2.375,2.375,0,0,1-.61.887l-6.655,6.415a3.672,3.672,0,0,0-1.146,2.847.111.111,0,0,0,.018.074,1.138,1.138,0,0,0,.943.943,1.69,1.69,0,0,0,1.331-.351c1.553-1.313,3.309-2.44,4.862-3.753.2-.185.425-.333.647-.5a1.586,1.586,0,0,1-.444.7c-1.664,1.553-3.328,3.106-5.01,4.64a1.25,1.25,0,0,0-.333,1.645A1.346,1.346,0,0,0,19.866,68a2.14,2.14,0,0,0,.7-.37c1.239-.758,6.23-4.529,7.635-5.417.018-.018.055.018.037.037-.518.629-4.178,3.586-4.363,3.753-.832.721-1.7,1.387-2.477,2.181a1.53,1.53,0,0,0-.425,1.257,1.862,1.862,0,0,0,1.035.98,1.991,1.991,0,0,0,1.294-.148c1.054-.481,2.052-1.035,3.069-1.571.647-.333,3.291-2.218,4.234-2.792a.021.021,0,1,1,.018.037l-5.472,4.992A2.254,2.254,0,0,0,24.8,73.4c.37.647,1.96.887,2.773.592h0L44.213,61.438,89.081,27.4,57.395,52.638C50.277,58.074,42.938,64.433,35.8,69.831c-2.237,1.7-4.492,3.383-6.729,5.084a1.568,1.568,0,0,0-.444,2.126c.425.647,1.109.758,1.978.277a7.463,7.463,0,0,0,.832-.481L50.277,63.49c.018-.018.055.018.037.037L32.622,79a2.236,2.236,0,0,0-.629.98,1.23,1.23,0,0,0,.518,1.405,1.538,1.538,0,0,0,1.738.129L49.223,71.384c.018-.018.055.018.037.037L36.5,82.883a1.494,1.494,0,0,0-.074,2.052,1.441,1.441,0,0,0,1.96.24c1.682-1.035,3.383-2.071,5.047-3.143,1.294-.832,2.57-1.682,3.864-2.533l-7.912,8.652a1.936,1.936,0,0,0-.018,2.533,1.483,1.483,0,0,0,2.108.2l4.659-2.995c.813-.518,1.627-1.054,2.44-1.59.018-.018.055.018.037.037l-4.344,5.065a1.733,1.733,0,0,0,0,2.348c.555.573,1.239.629,2.108,0q7.349-5.186,14.7-10.39c.906-.647,1.775-1.313,2.644-1.978a1.2,1.2,0,0,1,.148.166,5.946,5.946,0,0,0-.518.444q-6.9,6.212-13.81,12.4c-.943.85-1.091,1.627-.462,2.422.647.813,1.331.832,2.44.055.721-.518,1.442-1.017,2.181-1.534.111.129.055.074.166.2-.85.776-1.7,1.553-2.551,2.311a1.483,1.483,0,0,0-.536,1.719,1.584,1.584,0,0,0,2.625.776q11.98-8.874,23.922-17.8c.7-.518,1.387-1.054,2.071-1.59.055.055.111.129.166.185-.7.666-1.368,1.35-2.126,1.96-3.864,3.143-7.82,6.175-11.628,9.391a74.729,74.729,0,0,0-9.428,9.761c-.739.906-.813,1.738-.259,2.385.573.666,1.2.7,2.311.055,1.017-.592,2.034-1.2,2.995-1.867h0L96,73.418a2.054,2.054,0,0,1,.3-.129,1.263,1.263,0,0,1-.351.573L65.215,101.925c-1.424,1.387-2.792,2.829-4.141,4.27a1.691,1.691,0,0,0,.055,2.385c.592.592,1.239.555,2.071-.092l1.83-1.442c.536-.425,9.465-8.319,10.722-9.391.018-.018.055,0,.037.037C74.5,99.466,64.9,108.469,64.032,109.745a1.54,1.54,0,0,0,.961,2.44c.813.222,1.2-.148,1.923-.906L90.69,87.357c5.583-5.158,11.129-10.371,16.564-15.7,3.161-3.106,6.452-6.1,9.465-9.373a1.85,1.85,0,0,0,.129-2.662,1.509,1.509,0,0,0-1.165-.2,4.114,4.114,0,0,0-2.108.98l-8.763,7.025c4.141-4.271,11.055-9.835,15.2-14.106A1.7,1.7,0,0,0,120.14,50.919Zm-19.171-15.88c.018-.018.055.018.037.037-1.867,2.348-32.075,26.326-35.273,28.1a.021.021,0,1,1-.018-.037C72.369,57.149,93.777,40.419,100.969,35.039Zm-19.153,2.44c.019-.018.055,0,.037.037C80.282,39.864,61,56.04,57.857,57.63ZM92.723,35.15c-.629,1.257-35.033,29.986-37.566,31.372C64.105,58.425,83.092,42.766,92.723,35.15ZM50.665,80.72,87.695,50.827c.018-.018.055.018.037.037C75.863,61.42,63.884,72.4,50.85,81.515,50.739,81.349,50.776,80.868,50.665,80.72Z" transform="translate(-8.972 -14.069)" fill="#e555a8"/>
</svg>
