<svg xmlns="http://www.w3.org/2000/svg" viewBox="0 0 352.06 98.18"><defs><style>.cls-1{fill:#EAA236;}.cls-2{isolation:isolate;}.cls-3{fill:#40a848;}.cls-4{fill:#f2f0ee;}</style></defs><g id="Layer_2" data-name="Layer 2"><g id="Layer_1-2" data-name="Layer 1"><path id="ScribbleHeart1SVG" class="cls-1" d="M200.62,36.85c-.59-.68-1.32-.7-2.18,0L180.71,51.6c-.2.17-.41.34-.63.5a.35.35,0,0,1,.11-.35l14.44-13.27c1.53-1.41,3.07-2.85,4.58-4.27a1.38,1.38,0,0,0,.35-1.92l-.07-.08a1.58,1.58,0,0,0-2.16-.3,3.25,3.25,0,0,0-.5.4c-5.12,4.24-10.2,8.5-15.35,12.72q-11.64,9.59-23.35,19.09c-1.42,1.16-2.88,2.27-4.34,3.4a1.08,1.08,0,0,1,.33-.61l28-23.59A143.18,143.18,0,0,0,196.62,31.1l2.85-2.75h0a1.55,1.55,0,0,0-.19-2.18h0c-.61-.58-1.18-.6-2.11,0h0L175.23,43.51s0,0,0,0l23.4-20.71a1.94,1.94,0,0,0,0-2.64,1.42,1.42,0,0,0-2-.28,1.19,1.19,0,0,0-.2.19c-5.42,4.32-10.91,8.58-16.24,13-7.72,6.45-15.3,13.11-23,19.56-5.62,4.7-11.37,9.21-17,13.81-.22.19-.48.33-.72.5a.47.47,0,0,1,.16-.42c5.1-4.44,10.14-8.92,15.31-13.26S165.64,44.49,171,40.09c6.29-5.18,12.5-10.45,18.3-16.16,2.19-2.14,4.29-4.36,6.4-6.56a1.47,1.47,0,0,0,.15-2.06,2.09,2.09,0,0,0-.22-.2,1.77,1.77,0,0,0-2.27.17l-4.2,3.51L186.49,21a.94.94,0,0,1,.34-.57c2-2.17,4.06-4.33,6.08-6.51.55-.61,1.09-1.26,1.59-1.9a1.74,1.74,0,0,0,0-2.22,1.45,1.45,0,0,0-2-.13c-1.17.72-2.31,1.45-3.48,2.18-.63.41-1.26.82-1.9,1.22,0,0-.05,0,0,0a30,30,0,0,1,2.8-2.61,1.29,1.29,0,0,0,.46-1.57,1.36,1.36,0,0,0-1.44-.94,2.2,2.2,0,0,0-1.06.3q-4.25,2.55-8.43,5.14c-.81.5-1.61,1.05-2.4,1.59l-.13-.17.34-.22c2.88-2.37,5.74-4.74,8.63-7.1a1.69,1.69,0,0,0,.56-2.31h0c-.48-.7-1.24-.82-2.2-.26l-4.71,2.79h0l-.22-.35a.65.65,0,0,0,.18-.15c1-.92,1.93-1.87,2.87-2.81.7-.7.79-1.37.33-2A1.39,1.39,0,0,0,180.64,2l-.06,0c-3.35,2-6.82,3.86-10,6.12h0L137.3,34.61,115,51.7c5.69-4.79,11.37-9.23,17.11-14,6.83-5.66,13.76-11.19,20.56-16.9,7-5.89,13.94-11.89,21.35-17.28.41-.3.84-.59,1.22-.91a1.56,1.56,0,0,0,.34-2c-.45-.67-1.8-.24-2.46.07h0L135.82,29.6,165.77,4a1.57,1.57,0,0,0-.09-2.18c-.5-.63-1.15-.7-2-.09-4.09,3-8.26,5.88-12.18,9.06-6.9,5.58-13.61,11.39-20.43,17-5.51,4.56-11.11,9-16.68,13.52-.48.39-1,.74-1.51,1.09a1.16,1.16,0,0,1,.4-.7L142,16.29h0a13.08,13.08,0,0,0,.9-1.42,2.1,2.1,0,0,0-3.16-2.59c-.48.5-1,1-1.44,1.5A245.57,245.57,0,0,1,117.91,32c-1.11.91-2.22,1.79-3.33,2.7-.06-.05-.09-.11-.15-.17l.72-.61q9.8-9,19.56-17.91c1.85-1.7,3.6-3.53,5.38-5.31a1.33,1.33,0,0,0,.13-1.89l0,0a1.64,1.64,0,0,0-2.22,0L117.31,27.16a4,4,0,0,1-.48.32.81.81,0,0,1,.28-.5c2.42-2.44,4.86-4.83,7.25-7.3,3.75-3.9,7.43-7.86,11.15-11.8.7-.74.7-1.42.12-2s-1.22-.5-2,.19c-1.78,1.59-3.53,3.2-5.33,4.77s-3.34,2.88-5,4.32c0,0-.09-.09-.12-.14l1.75-1.7q4.11-4,8.19-8.06c.78-.78.54-1.93-.5-2.09a1.8,1.8,0,0,0-1.35.42c-3.86,3.33-7.67,6.88-11.52,10.22-.44.39-6.1,5.29-6.56,5.64.33-.55,6-5.71,6.42-6.12l9.76-9.2c.64-.63.72-1.2.26-1.76a1.3,1.3,0,0,0-1.83-.19l-.1.08c-.3.22-.57.5-.87.72L110.51,16.07c-1.29,1-2.61,2-3.9,3a1.25,1.25,0,0,1,.39-.66c1-1,1.92-1.94,3-2.85,4.93-4.36,9.91-8.69,14.86-13,.67-.59.78-1.19.32-1.81a1.14,1.14,0,0,0-1.82-.17c-2.09,1.63-4.2,3.25-6.26,4.9-1.11.87-2.18,1.76-3.29,2.64,0,0-.06,0,0,0l6.12-6c.66-.63.76-1.13.3-1.67a1.27,1.27,0,0,0-1.78-.09l0,0c-.92.74-1.81,1.5-2.73,2.26l-6.47,5.26s-.06,0,0,0l5.09-5.14a1,1,0,0,0,.13-1.4l0,0A.92.92,0,0,0,113,1l-.13.1a5.9,5.9,0,0,0-.59.43c-3.88,3.12-7.73,6.3-11.55,9.48-.61.5-1.2,1-1.8,1.53a2.67,2.67,0,0,1,.72-1c2.46-2.4,4.9-4.79,7.38-7.17a.93.93,0,0,0,.22-1.3.87.87,0,0,0-.09-.11c-.41-.48-.89-.39-1.35,0-1,.76-2,1.52-3,2.28h0l-9.06,8c-.32.3-.78.87-.56,1.2.63,1,2.39-.26,2.81-.55,0,0,0,0,0,0-.8,1.06-3.38,3.42-4.14,4.48-.37.52-.52,1,0,1.51a1,1,0,0,0,1.48,0l0,0c1.19-1,2.4-1.89,3.6-2.83a4.38,4.38,0,0,1,.58-.37h0c.06.08.12.13.17.2v0c-.7.72-1.39,1.44-2.11,2.12-1.77,1.69-3.57,3.33-5.32,5-.63.61-.65,1.17-.15,1.69a1.21,1.21,0,0,0,1.7-.1l0,0,9.85-8.28-7.69,7.61c-1.42,1.5-2.88,3-4.27,4.48a1.46,1.46,0,0,0-.33,1.25c.13.35.68.56,1.07.8a2,2,0,0,0,.48.07s0,0,0,0c-.39.44-.72.81-1,1.2a1.24,1.24,0,0,0,1.71,1.76h0c.22-.15.43-.34.63-.5l7.89-6.59c.26-.22.56-.42.84-.62a4.28,4.28,0,0,1-.82,1c-2.75,2.61-5.52,5.21-8.28,7.84a1.39,1.39,0,0,0-.36,1.94,1.25,1.25,0,0,0,.09.12c.5.56,1,.56,1.9-.09,3.38-2.61,6.8-5.18,10.24-7.75.18-.13.37-.24.55-.35a5.25,5.25,0,0,1-1,1.22L92.65,40.57c-.68.63-.78,1.15-.3,1.74a1.32,1.32,0,0,0,1.85.25.46.46,0,0,0,.07-.07,5.12,5.12,0,0,0,.63-.5q8.58-7,17.13-14.11c.2-.16.42-.31.64-.46a.71.71,0,0,1-.27.54c-3.55,3.31-7.06,6.65-10.65,9.91-2.83,2.57-5.77,5-8.67,7.54A1.25,1.25,0,0,0,92.6,47a1.22,1.22,0,0,0,1.5.85,1.36,1.36,0,0,0,.51-.29l8.43-6.3c.69-.52,1.41-1,2.09-1.52,0,0,0,0,0,0a2.36,2.36,0,0,1-.61.89L97.9,47a3.68,3.68,0,0,0-1.14,2.85.08.08,0,0,0,0,.07,1.12,1.12,0,0,0,.94,1,1.72,1.72,0,0,0,1.33-.35c1.55-1.32,3.31-2.44,4.86-3.76.2-.18.43-.33.65-.5a1.54,1.54,0,0,1-.45.7c-1.66,1.56-3.32,3.11-5,4.64a1.26,1.26,0,0,0-.33,1.65,1.34,1.34,0,0,0,1.57.66,2,2,0,0,0,.7-.37c1.24-.76,6.23-4.53,7.64-5.42,0,0,0,0,0,0-.52.63-4.18,3.59-4.37,3.75-.83.73-1.7,1.39-2.47,2.19a1.49,1.49,0,0,0-.43,1.25,1.82,1.82,0,0,0,1,1,1.92,1.92,0,0,0,1.29-.15c1-.48,2-1,3.07-1.57.65-.33,3.29-2.21,4.23-2.79a0,0,0,0,1,0,0s0,0,0,0h0l-5.47,5a2.25,2.25,0,0,0-.35,2.46c.37.65,2,.89,2.77.59h0l16.64-12.55,44.87-34L137.87,38.57c-7.12,5.44-14.45,11.79-21.59,17.19l-6.73,5.09A1.56,1.56,0,0,0,109.1,63c.43.65,1.11.76,2,.28a6.18,6.18,0,0,0,.83-.48l18.84-13.35s.06,0,0,0L113.1,64.93a2.27,2.27,0,0,0-.63,1,1.25,1.25,0,0,0,.52,1.41,1.54,1.54,0,0,0,1.74.13l15-10.13s.06,0,0,0L117,68.81a1.5,1.5,0,0,0-.08,2.06,1.45,1.45,0,0,0,2,.24c1.69-1,3.39-2.07,5-3.15,1.29-.83,2.57-1.68,3.86-2.53l-7.91,8.65a2,2,0,0,0,0,2.54,1.49,1.49,0,0,0,2.09.21h0l4.66-3c.81-.52,1.63-1,2.44-1.59,0,0,.06,0,0,0l-4.35,5.06a1.74,1.74,0,0,0,0,2.35c.56.57,1.24.63,2.11,0l14.7-10.39c.91-.65,1.78-1.31,2.65-2a1.15,1.15,0,0,1,.14.17,5.37,5.37,0,0,0-.51.44q-6.9,6.21-13.81,12.4c-1,.85-1.09,1.63-.47,2.42s1.34.84,2.44.06c.73-.52,1.45-1,2.19-1.53.11.12,0,.07.16.2l-2.55,2.31a1.5,1.5,0,0,0-.54,1.72,1.58,1.58,0,0,0,2.63.77q12-8.86,23.92-17.8,1-.78,2.07-1.59l.17.19c-.7.66-1.37,1.35-2.13,2-3.86,3.14-7.82,6.17-11.63,9.39a74.91,74.91,0,0,0-9.42,9.76c-.74.9-.82,1.74-.26,2.38s1.2.7,2.31.06,2-1.2,3-1.87h0l34.58-29.4a2.08,2.08,0,0,1,.3-.13,1.34,1.34,0,0,1-.35.57L145.69,87.86c-1.42,1.38-2.79,2.83-4.14,4.27a1.69,1.69,0,0,0,.06,2.38c.59.59,1.24.56,2.07-.09L145.51,93c.53-.43,9.46-8.32,10.72-9.39,0,0,.05,0,0,0C155,85.4,145.38,94.4,144.51,95.68a1.55,1.55,0,0,0,1,2.44c.81.22,1.2-.15,1.92-.91l23.78-23.92c5.58-5.16,11.13-10.37,16.56-15.7,3.16-3.11,6.45-6.1,9.47-9.37a1.84,1.84,0,0,0,.17-2.61l0-.06a1.55,1.55,0,0,0-1.17-.2,4.2,4.2,0,0,0-2.11,1l-8.76,7c4.14-4.27,11.05-9.84,15.2-14.11a1.7,1.7,0,0,0,.13-2.4ZM181.45,21s.05,0,0,0c-1.86,2.35-32.07,26.32-35.27,28.1h0s0,0,0,0h0C152.85,43.08,174.25,26.35,181.45,21Zm-19.16,2.44s.06,0,0,0c-1.57,2.35-20.85,18.52-24,20.11Zm10.91-2.33c-.63,1.26-35,30-37.57,31.37C144.58,44.36,163.57,28.7,173.2,21.08ZM131.14,66.65l37-29.89s.06,0,0,0c-11.87,10.55-23.85,21.53-36.88,30.65C131.22,67.28,131.25,66.8,131.14,66.65Z"/><g class="cls-2"><path class="cls-3" d="M10.85,54.64a12.15,12.15,0,0,1-4.61-.82A9.56,9.56,0,0,1,2.83,51.5,10,10,0,0,1,.73,48,13.26,13.26,0,0,1,0,43.48a12.82,12.82,0,0,1,.9-4.93,10.64,10.64,0,0,1,2.49-3.69,10.87,10.87,0,0,1,3.76-2.32,13.3,13.3,0,0,1,4.7-.81,23.21,23.21,0,0,1,2.37.12c.78.07,1.51.16,2.18.26s1.26.21,1.78.31l1.17.25L19,38.33H15.85L15,34.65a2.1,2.1,0,0,0-.38-.3,3,3,0,0,0-.62-.29,6.45,6.45,0,0,0-1-.22,10.92,10.92,0,0,0-1.4-.08A6.14,6.14,0,0,0,9,34.3,5.18,5.18,0,0,0,7,36a8.35,8.35,0,0,0-1.3,2.8,15,15,0,0,0-.46,4,18.6,18.6,0,0,0,.36,3.71,11.34,11.34,0,0,0,1.09,3.15,6.43,6.43,0,0,0,1.87,2.18,4.5,4.5,0,0,0,2.7.82,7.73,7.73,0,0,0,2.2-.28,3.16,3.16,0,0,0,1.43-.76V45.48L12,45.14V42.72h9.08v2.42l-1.54.28v7.69a7,7,0,0,0-1.46.27l-2,.53q-1.11.29-2.43.51A17.24,17.24,0,0,1,10.85,54.64Z"/><path class="cls-3" d="M22.79,54.31v-2l2.14-.28V40.79l-2-.63V38l5.38-.72h.07l1.07.63V52.05l2.13.3v2Zm3.9-19.54a2.26,2.26,0,0,1-.92-.19,2.13,2.13,0,0,1-.67-.51,2.1,2.1,0,0,1-.41-.75,3,3,0,0,1-.14-.91,3.81,3.81,0,0,1,.15-1.08,2.68,2.68,0,0,1,.48-.88,2.17,2.17,0,0,1,.8-.6,2.57,2.57,0,0,1,1.1-.22h0a2.49,2.49,0,0,1,1,.19,2.18,2.18,0,0,1,.73.53,2.16,2.16,0,0,1,.43.75,3,3,0,0,1,.14.9,3.5,3.5,0,0,1-.16,1.09,2.44,2.44,0,0,1-.49.88,2.26,2.26,0,0,1-.85.58,3.11,3.11,0,0,1-1.23.22Z"/><path class="cls-3" d="M39.45,54.54,33.57,39.81l-1.39-.41V37.52h8.57v1.86l-2.18.41,2.74,8.42,1,3.34.82-3.25,2.62-8.51-2.14-.41V37.52h6.65V39.4l-1.49.41L43.27,54.54Z"/><path class="cls-3" d="M58.93,54.64A8.87,8.87,0,0,1,55.38,54a6.57,6.57,0,0,1-2.45-1.79,7.4,7.4,0,0,1-1.41-2.75A12.87,12.87,0,0,1,51.06,46a11,11,0,0,1,.58-3.67,8,8,0,0,1,1.64-2.75,6.9,6.9,0,0,1,2.53-1.74,8.67,8.67,0,0,1,3.28-.6q6.07,0,6.34,5.94c0,.67,0,1.28,0,1.82a9.08,9.08,0,0,1-.16,1.37H55.71a9.24,9.24,0,0,0,.42,2.47,4.76,4.76,0,0,0,.93,1.67,3.31,3.31,0,0,0,1.35.94,4.78,4.78,0,0,0,1.72.29,7.61,7.61,0,0,0,1.39-.11,9.56,9.56,0,0,0,1.2-.3,6,6,0,0,0,1-.39,7.35,7.35,0,0,0,.77-.43l.76,1.78a5.82,5.82,0,0,1-1,.8,10.48,10.48,0,0,1-1.5.76,12,12,0,0,1-1.81.59A8.33,8.33,0,0,1,58.93,54.64Zm-.39-15.46a2.68,2.68,0,0,0-1.07.2,2,2,0,0,0-.86.78A5,5,0,0,0,56,41.75a14.06,14.06,0,0,0-.3,2.63H61a1.79,1.79,0,0,1,0-.21c0-.09,0-.18,0-.28a2.62,2.62,0,0,0,0-.28v-.19a11.15,11.15,0,0,0-.1-1.51,5,5,0,0,0-.37-1.37,2.65,2.65,0,0,0-.75-1A1.87,1.87,0,0,0,58.54,39.18Z"/><path class="cls-3" d="M76.86,49.86a4.45,4.45,0,0,1,.39-1.92,4.56,4.56,0,0,1,1.07-1.47,6.3,6.3,0,0,1,1.6-1.07,12,12,0,0,1,2-.72,16,16,0,0,1,2.23-.42c.77-.09,1.54-.14,2.32-.16v-.71A3.32,3.32,0,0,0,85.77,41a2.94,2.94,0,0,0-2.23-.72,10.65,10.65,0,0,0-1.59.13,14.27,14.27,0,0,0-1.53.31,13.74,13.74,0,0,0-1.36.41c-.41.15-.76.29-1.06.43h0l-.87-2a8.16,8.16,0,0,1,1-.66,14.3,14.3,0,0,1,1.76-.78,19.26,19.26,0,0,1,2.27-.66,12.12,12.12,0,0,1,2.57-.28,9.6,9.6,0,0,1,2.76.35,4.11,4.11,0,0,1,2.88,2.94,9.45,9.45,0,0,1,.33,2.65v9.14h1.82v1.8l-.69.15-.91.18-1.07.14c-.38,0-.77,0-1.17,0a7.82,7.82,0,0,1-.9,0,1.37,1.37,0,0,1-.6-.2,1,1,0,0,1-.33-.46,2.65,2.65,0,0,1-.1-.82v-.85a5.63,5.63,0,0,1-.69.75,6,6,0,0,1-1.06.77,6.33,6.33,0,0,1-1.42.61,6,6,0,0,1-1.74.24,6.86,6.86,0,0,1-2-.27,4.56,4.56,0,0,1-1.59-.87A4.1,4.1,0,0,1,77.26,52,5.26,5.26,0,0,1,76.86,49.86Zm7,2a2.92,2.92,0,0,0,.6-.08,4.15,4.15,0,0,0,.7-.2,4.64,4.64,0,0,0,.72-.32,3.51,3.51,0,0,0,.62-.41V46a9.47,9.47,0,0,0-2.39.26,4.44,4.44,0,0,0-1.53.71,2.49,2.49,0,0,0-.81,1,3.07,3.07,0,0,0-.24,1.21,3,3,0,0,0,.59,2A2.21,2.21,0,0,0,83.82,51.82Z"/></g><g class="cls-2"><path class="cls-4" d="M103.73,54.31v-2l2.38-.41V34.43L103.77,34V32h9.48v2l-2.51.45v7.34h8.75V34.43L117.11,34V32h9.35v2l-2.34.45V51.91l2.34.39v2h-9.32v-2l2.35-.41V44.08h-8.75v7.81l2.51.41v2Z"/><path class="cls-4" d="M136.67,54.64a8.87,8.87,0,0,1-3.55-.64,6.57,6.57,0,0,1-2.45-1.79,7.4,7.4,0,0,1-1.41-2.75A12.87,12.87,0,0,1,128.8,46a11,11,0,0,1,.58-3.67A8,8,0,0,1,131,39.55a6.9,6.9,0,0,1,2.53-1.74,8.67,8.67,0,0,1,3.28-.6q6.07,0,6.34,5.94c0,.67,0,1.28,0,1.82a9.08,9.08,0,0,1-.16,1.37h-9.56a9.24,9.24,0,0,0,.42,2.47,4.91,4.91,0,0,0,.92,1.67,3.41,3.41,0,0,0,1.36.94,4.78,4.78,0,0,0,1.72.29,7.61,7.61,0,0,0,1.39-.11,9.56,9.56,0,0,0,1.2-.3,6.38,6.38,0,0,0,1-.39,7.35,7.35,0,0,0,.77-.43l.76,1.78a5.82,5.82,0,0,1-1,.8,10.48,10.48,0,0,1-1.5.76,11.76,11.76,0,0,1-1.82.59A8.19,8.19,0,0,1,136.67,54.64Zm-.4-15.46a2.67,2.67,0,0,0-1.06.2,2,2,0,0,0-.86.78,5,5,0,0,0-.62,1.59,14.06,14.06,0,0,0-.3,2.63h5.26a1.79,1.79,0,0,1,0-.21c0-.09,0-.18,0-.28a2.62,2.62,0,0,0,0-.28v-.19a11.15,11.15,0,0,0-.1-1.51,4.67,4.67,0,0,0-.38-1.37,2.62,2.62,0,0,0-.74-1A1.88,1.88,0,0,0,136.27,39.18Z"/><path class="cls-4" d="M145.18,49.86a4.45,4.45,0,0,1,.39-1.92,4.56,4.56,0,0,1,1.07-1.47,6.3,6.3,0,0,1,1.6-1.07,12,12,0,0,1,2-.72,16,16,0,0,1,2.23-.42c.77-.09,1.54-.14,2.32-.16v-.71a3.32,3.32,0,0,0-.69-2.37,2.94,2.94,0,0,0-2.23-.72,10.65,10.65,0,0,0-1.59.13,14.27,14.27,0,0,0-1.53.31,12.76,12.76,0,0,0-1.35.41c-.42.15-.77.29-1.07.43h0l-.87-2a8.16,8.16,0,0,1,1-.66,14.3,14.3,0,0,1,1.76-.78,19.26,19.26,0,0,1,2.27-.66,12.12,12.12,0,0,1,2.57-.28,9.6,9.6,0,0,1,2.76.35,4.11,4.11,0,0,1,2.88,2.94,9.45,9.45,0,0,1,.33,2.65v9.14h1.82v1.8l-.69.15-.91.18-1.07.14c-.38,0-.77,0-1.17,0a7.82,7.82,0,0,1-.9,0,1.37,1.37,0,0,1-.6-.2,1,1,0,0,1-.33-.46,2.65,2.65,0,0,1-.1-.82v-.85a5.63,5.63,0,0,1-.69.75,6,6,0,0,1-1.06.77,6.33,6.33,0,0,1-1.42.61,5.9,5.9,0,0,1-1.74.24,6.86,6.86,0,0,1-1.95-.27,4.56,4.56,0,0,1-1.59-.87A4.1,4.1,0,0,1,145.58,52,5.26,5.26,0,0,1,145.18,49.86Zm7,2a2.92,2.92,0,0,0,.6-.08,4.15,4.15,0,0,0,.7-.2,4.64,4.64,0,0,0,.72-.32,3.51,3.51,0,0,0,.62-.41V46a9.33,9.33,0,0,0-2.38.26,4.5,4.5,0,0,0-1.54.71,2.49,2.49,0,0,0-.81,1,3.07,3.07,0,0,0-.24,1.21,3,3,0,0,0,.59,2A2.21,2.21,0,0,0,152.14,51.82Z"/><path class="cls-4" d="M162.66,54.31v-2l2.11-.28V40.79l-2-.62V38l5-.72h.09l.78.63v1.22l0,2.28h.06a6.88,6.88,0,0,1,.64-1.18,8.37,8.37,0,0,1,1.14-1.37A6.65,6.65,0,0,1,172,37.68,4,4,0,0,1,174,37.2a4.16,4.16,0,0,1,.7,0,1.7,1.7,0,0,1,.4.09V42.4a2.71,2.71,0,0,0-.84-.26A8.35,8.35,0,0,0,172.6,42a9.38,9.38,0,0,0-2,.22,4.83,4.83,0,0,0-.8.22,2.23,2.23,0,0,0-.54.27v9.34l3.64.35v1.91Z"/><path class="cls-4" d="M178.59,50.79V40h-2.06V38.34l.37-.12.53-.2.49-.2a1.36,1.36,0,0,0,.28-.14,4.54,4.54,0,0,0,1-1.4c.1-.2.2-.43.32-.68s.23-.54.34-.82.22-.56.32-.84.18-.53.25-.76h2.61l0,4.34h4.31V40h-4.31v8.12c0,.78,0,1.4,0,1.86a3.48,3.48,0,0,0,.17,1,.77.77,0,0,0,.43.45,2.54,2.54,0,0,0,.81.1h0a6.27,6.27,0,0,0,.74,0l.77-.14.68-.18.52-.17h0l.69,1.72a7.84,7.84,0,0,1-1.08.67,10.71,10.71,0,0,1-1.4.61,13.4,13.4,0,0,1-1.63.44,9.1,9.1,0,0,1-1.72.16h0a5,5,0,0,1-1.65-.24,2.71,2.71,0,0,1-1.1-.74,3.07,3.07,0,0,1-.61-1.21A6.83,6.83,0,0,1,178.59,50.79Z"/></g><g class="cls-2"><path class="cls-3" d="M209,54.64a11.71,11.71,0,0,1-4.56-.82,9.07,9.07,0,0,1-3.31-2.33,9.91,9.91,0,0,1-2-3.6,14.71,14.71,0,0,1-.68-4.63,12.12,12.12,0,0,1,.88-4.71,10.8,10.8,0,0,1,2.44-3.62,10.66,10.66,0,0,1,3.65-2.33,12.4,12.4,0,0,1,4.56-.82,15.93,15.93,0,0,1,2,.12c.64.09,1.23.18,1.78.28s1.06.21,1.52.31.85.18,1.18.23l-.33,5.83h-3l-.87-3.86a2.6,2.6,0,0,0-.38-.34,2.18,2.18,0,0,0-.55-.29,5.57,5.57,0,0,0-.8-.19,7.28,7.28,0,0,0-1.12-.07,4.86,4.86,0,0,0-2.31.55A5,5,0,0,0,205.26,36a8.63,8.63,0,0,0-1.17,2.77,16.15,16.15,0,0,0-.42,3.91,19.57,19.57,0,0,0,.34,3.72,11.73,11.73,0,0,0,1,3.16,6.35,6.35,0,0,0,1.77,2.19,4,4,0,0,0,2.53.82,9,9,0,0,0,1.26-.08,5.86,5.86,0,0,0,.91-.21,2.64,2.64,0,0,0,.63-.32,3.16,3.16,0,0,0,.42-.37l1.34-3.24,2.57.15-.35,5a6.38,6.38,0,0,0-1.27.22c-.43.13-.91.26-1.45.39s-1.16.26-1.87.38A16.81,16.81,0,0,1,209,54.64Z"/><path class="cls-3" d="M218.42,49.86a4.45,4.45,0,0,1,.39-1.92,4.71,4.71,0,0,1,1.07-1.47,6.3,6.3,0,0,1,1.6-1.07,11.79,11.79,0,0,1,2-.72,15.57,15.57,0,0,1,2.22-.42c.77-.09,1.55-.14,2.32-.16v-.71a3.37,3.37,0,0,0-.68-2.37,3,3,0,0,0-2.24-.72,10.76,10.76,0,0,0-1.59.13,14.27,14.27,0,0,0-1.53.31,12.76,12.76,0,0,0-1.35.41c-.42.15-.77.29-1.07.43h0l-.86-2a6.91,6.91,0,0,1,1-.66,13.46,13.46,0,0,1,1.75-.78,19.26,19.26,0,0,1,2.27-.66,12.12,12.12,0,0,1,2.57-.28,9.6,9.6,0,0,1,2.76.35,4.36,4.36,0,0,1,1.85,1.09,4.41,4.41,0,0,1,1,1.85,9.47,9.47,0,0,1,.32,2.65v9.14h1.82v1.8l-.69.15-.91.18c-.33,0-.68.1-1.07.14s-.77,0-1.17,0a7.82,7.82,0,0,1-.9,0,1.37,1.37,0,0,1-.6-.2,1,1,0,0,1-.33-.46,2.65,2.65,0,0,1-.1-.82v-.85a5.63,5.63,0,0,1-.69.75,6,6,0,0,1-1.06.77,6.45,6.45,0,0,1-1.41.61,6,6,0,0,1-1.75.24,6.86,6.86,0,0,1-2-.27,4.43,4.43,0,0,1-1.58-.87A4,4,0,0,1,218.82,52,5.26,5.26,0,0,1,218.42,49.86Zm7,2a2.76,2.76,0,0,0,.6-.08,3.9,3.9,0,0,0,.7-.2,4.64,4.64,0,0,0,.72-.32,3.18,3.18,0,0,0,.62-.41V46a9.39,9.39,0,0,0-2.38.26,4.36,4.36,0,0,0-1.53.71,2.52,2.52,0,0,0-.82,1,3.07,3.07,0,0,0-.24,1.21,2.94,2.94,0,0,0,.6,2A2.17,2.17,0,0,0,225.38,51.82Z"/><path class="cls-3" d="M236.06,54.31V52.4l1.83-.33V40.79l-2-.62V38l5.18-.72h.08l.77.63v1.75a6.54,6.54,0,0,1,1.2-.88,9.34,9.34,0,0,1,1.52-.75,9.93,9.93,0,0,1,1.66-.51,7.26,7.26,0,0,1,1.61-.19,5.61,5.61,0,0,1,2.68.54,3.4,3.4,0,0,1,1.51,1.73,7.62,7.62,0,0,1,1.08-.77,10.07,10.07,0,0,1,1.47-.73,11.52,11.52,0,0,1,1.69-.55,7.07,7.07,0,0,1,1.73-.22,6.43,6.43,0,0,1,2.3.35,3.07,3.07,0,0,1,1.47,1.14,5.11,5.11,0,0,1,.8,2.06,17.85,17.85,0,0,1,.23,3.08v8.15l2.07.33v1.91h-8.12V52.4l1.54-.33v-8a11.6,11.6,0,0,0-.13-1.91,3.52,3.52,0,0,0-.41-1.26,1.74,1.74,0,0,0-.79-.71,3.25,3.25,0,0,0-1.25-.22,3.63,3.63,0,0,0-.81.11,7.11,7.11,0,0,0-.87.25,7.2,7.2,0,0,0-.85.35,4.77,4.77,0,0,0-.72.38,10.26,10.26,0,0,1,.16,1.34c0,.48,0,1,0,1.57v8.13l1.95.32v1.91h-8.2V52.4l1.76-.32V43.89a11.18,11.18,0,0,0-.12-1.75,3.44,3.44,0,0,0-.4-1.21,1.74,1.74,0,0,0-.78-.69,3,3,0,0,0-1.24-.23,4.87,4.87,0,0,0-.91.1,9.07,9.07,0,0,0-.93.26,5.89,5.89,0,0,0-.84.35,4.47,4.47,0,0,0-.64.4v11l2,.33v1.91Z"/><path class="cls-3" d="M266.41,59.71l2.2-.36V40.79l-2-.62V38l5.24-.72h.07l.75.63v1.56a6.2,6.2,0,0,1,.86-.83,6.09,6.09,0,0,1,1.12-.71,6.74,6.74,0,0,1,1.35-.5,6.06,6.06,0,0,1,1.58-.19,7,7,0,0,1,2.52.45,5.27,5.27,0,0,1,2.06,1.45,7.06,7.06,0,0,1,1.39,2.55,12.68,12.68,0,0,1,.5,3.78,11,11,0,0,1-.59,3.63A8.76,8.76,0,0,1,281.76,52a7.9,7.9,0,0,1-2.71,2,8.79,8.79,0,0,1-3.6.7l-.73,0-.68-.08-.6-.08-.42-.09.08,2.43v2.55l2.91.36v1.86h-9.6Zm9.32-19.85a3.73,3.73,0,0,0-1.57.32,3.43,3.43,0,0,0-1.06.71V52a2.16,2.16,0,0,0,.81.49,3.83,3.83,0,0,0,1.35.21,3.36,3.36,0,0,0,1.5-.34A3.18,3.18,0,0,0,278,51.2a6.75,6.75,0,0,0,.85-2.08A14.47,14.47,0,0,0,279.2,46a12.86,12.86,0,0,0-.21-2.81,5.75,5.75,0,0,0-.7-1.89,2.81,2.81,0,0,0-1.1-1.07A3.23,3.23,0,0,0,275.73,39.86Z"/><path class="cls-3" d="M286,49.86a4.45,4.45,0,0,1,.39-1.92,4.56,4.56,0,0,1,1.07-1.47,6.3,6.3,0,0,1,1.6-1.07,12,12,0,0,1,2-.72,16,16,0,0,1,2.23-.42c.77-.09,1.54-.14,2.31-.16v-.71a3.32,3.32,0,0,0-.68-2.37,2.94,2.94,0,0,0-2.23-.72,10.65,10.65,0,0,0-1.59.13,14.27,14.27,0,0,0-1.53.31,12.76,12.76,0,0,0-1.35.41c-.42.15-.77.29-1.07.43h0l-.87-2a8.16,8.16,0,0,1,1-.66,14.3,14.3,0,0,1,1.76-.78,19.26,19.26,0,0,1,2.27-.66,12.12,12.12,0,0,1,2.57-.28,9.6,9.6,0,0,1,2.76.35,4.11,4.11,0,0,1,2.88,2.94,9.45,9.45,0,0,1,.33,2.65v9.14h1.82v1.8l-.69.15-.91.18-1.07.14c-.38,0-.77,0-1.17,0a7.82,7.82,0,0,1-.9,0,1.37,1.37,0,0,1-.6-.2,1,1,0,0,1-.33-.46,2.65,2.65,0,0,1-.1-.82v-.85a5.63,5.63,0,0,1-.69.75,6,6,0,0,1-1.06.77,6.33,6.33,0,0,1-1.42.61,6,6,0,0,1-1.74.24,6.86,6.86,0,0,1-1.95-.27,4.56,4.56,0,0,1-1.59-.87A4.1,4.1,0,0,1,286.41,52,5.26,5.26,0,0,1,286,49.86Zm7,2a2.92,2.92,0,0,0,.6-.08,4.15,4.15,0,0,0,.7-.2,4.64,4.64,0,0,0,.72-.32,3.09,3.09,0,0,0,.61-.41V46a9.3,9.3,0,0,0-2.37.26,4.41,4.41,0,0,0-1.54.71,2.49,2.49,0,0,0-.81,1,3.07,3.07,0,0,0-.24,1.21,3,3,0,0,0,.59,2A2.21,2.21,0,0,0,293,51.82Z"/><path class="cls-3" d="M303.4,54.31v-2l2.14-.28V40.79l-2-.63V38l5.38-.72H309l1.07.63V52.05l2.12.3v2Zm3.89-19.54a2.21,2.21,0,0,1-.91-.19,2,2,0,0,1-.67-.51,2,2,0,0,1-.41-.75,2.71,2.71,0,0,1-.14-.91,3.81,3.81,0,0,1,.15-1.08,2.36,2.36,0,0,1,.48-.88,2.13,2.13,0,0,1,.79-.6,2.59,2.59,0,0,1,1.11-.22h0a2.54,2.54,0,0,1,1,.19,2,2,0,0,1,.72.53,2.18,2.18,0,0,1,.44.75,3,3,0,0,1,.13.9,3.5,3.5,0,0,1-.16,1.09,2.3,2.3,0,0,1-.49.88,2.18,2.18,0,0,1-.85.58,3,3,0,0,1-1.22.22Z"/><path class="cls-3" d="M321.65,48.58a12.83,12.83,0,0,1-2.23-.18A2.43,2.43,0,0,0,319,49a1.86,1.86,0,0,0-.16.77,1.6,1.6,0,0,0,.19.82,1.22,1.22,0,0,0,.6.48,3.91,3.91,0,0,0,1.05.23c.43,0,.94,0,1.53,0h2.93a8.37,8.37,0,0,1,4.71,1.07,4,4,0,0,1,1.55,3.5,4.91,4.91,0,0,1-.77,2.69,6.87,6.87,0,0,1-2.08,2,10.7,10.7,0,0,1-3,1.3,13.7,13.7,0,0,1-3.59.46h0a15,15,0,0,1-3.53-.36A7.54,7.54,0,0,1,316,61a4.13,4.13,0,0,1-1.39-1.54,4.3,4.3,0,0,1-.45-1.95,3.2,3.2,0,0,1,.25-1.27,4,4,0,0,1,.66-1.08,4.41,4.41,0,0,1,1-.86,5.21,5.21,0,0,1,1.13-.57,3.4,3.4,0,0,1-1.3-1.11,2.79,2.79,0,0,1-.45-1.58,3,3,0,0,1,.58-1.89,5.78,5.78,0,0,1,1.5-1.35,4.65,4.65,0,0,1-2.21-1.91,5.78,5.78,0,0,1-.71-2.93,4.88,4.88,0,0,1,.59-2.38,5.77,5.77,0,0,1,1.62-1.83,7.82,7.82,0,0,1,2.39-1.16,10.18,10.18,0,0,1,2.91-.41h0q3.66,0,5.43,1.4a3.57,3.57,0,0,1,.56-.5,3.9,3.9,0,0,1,.81-.46,6.28,6.28,0,0,1,1-.35,4.93,4.93,0,0,1,1.17-.14h.69v3.29h-2.89a7.4,7.4,0,0,1,.26,1,6.4,6.4,0,0,1,.09,1.11,5.28,5.28,0,0,1-.55,2.42,5.6,5.6,0,0,1-1.55,1.92,7.87,7.87,0,0,1-2.39,1.26,9.94,9.94,0,0,1-3.07.45Zm-.75,5.92a10.74,10.74,0,0,1-1.75-.13,3.3,3.3,0,0,0-.55.84,3.26,3.26,0,0,0-.26,1.43,4.76,4.76,0,0,0,.26,1.67,2.76,2.76,0,0,0,.78,1.12,3.21,3.21,0,0,0,1.27.62,7,7,0,0,0,1.75.19h0a7.8,7.8,0,0,0,1.74-.2,5.18,5.18,0,0,0,1.52-.63,3.43,3.43,0,0,0,1.07-1,2.78,2.78,0,0,0,.4-1.48,3.87,3.87,0,0,0-.14-1.1,1.42,1.42,0,0,0-.5-.74,2.4,2.4,0,0,0-1-.42A7.82,7.82,0,0,0,324,54.5Zm1.1-7.88h0a2.31,2.31,0,0,0,1.23-.3,2,2,0,0,0,.77-.82,3.52,3.52,0,0,0,.39-1.21,10,10,0,0,0,.11-1.48A5,5,0,0,0,323.9,40a2.35,2.35,0,0,0-2-.87h0a2.29,2.29,0,0,0-2,.88,4.72,4.72,0,0,0-.61,2.68,8.67,8.67,0,0,0,.13,1.59,3.69,3.69,0,0,0,.45,1.25,2.36,2.36,0,0,0,.86.8A2.83,2.83,0,0,0,322,46.62Z"/><path class="cls-3" d="M333.21,54.31v-2l1.89-.3V40.79l-2-.62V38l5.25-.72h.07l.78.63v1.75a7.73,7.73,0,0,1,1.14-.87,10.16,10.16,0,0,1,1.43-.75,11.37,11.37,0,0,1,1.62-.52,7.6,7.6,0,0,1,1.71-.19,6.64,6.64,0,0,1,2.35.36,3.24,3.24,0,0,1,1.5,1.17,5.26,5.26,0,0,1,.8,2.08A17.64,17.64,0,0,1,350,44v8.12l2.08.28v2h-8.25v-2l1.6-.28V43.89a12.82,12.82,0,0,0-.1-1.75,3.45,3.45,0,0,0-.38-1.21,1.7,1.7,0,0,0-.74-.69A2.9,2.9,0,0,0,343,40a4.6,4.6,0,0,0-1,.11,5.1,5.1,0,0,0-.91.29,5.26,5.26,0,0,0-.79.38l-.63.42V52.05l2,.3v2Z"/></g></g></g></svg>