<svg xmlns="http://www.w3.org/2000/svg" width="169" height="40" viewBox="0 0 169 40">
  <g id="Group_1524" data-name="Group 1524" transform="translate(-147 -621)">
    <circle id="Ellipse_5" data-name="Ellipse 5" cx="20" cy="20" r="20" transform="translate(147 621)" fill="#f2f0ed"/>
    <g id="Group_254" data-name="Group 254" transform="translate(153.73 626.522)">
      <g id="Group_54" data-name="Group 54" transform="translate(2.77 9.298)">
        <g id="Group_17" data-name="Group 17" transform="translate(0.236 0.216)">
          <g id="Group_16" data-name="Group 16">
            <g id="Group_15" data-name="Group 15">
              <g id="Group_14" data-name="Group 14">
                <g id="Group_13" data-name="Group 13">
                  <g id="Group_12" data-name="Group 12">
                    <path id="Path_1" data-name="Path 1" d="M154.807,239.7c.01.068.022.135.034.2a7.224,7.224,0,0,0,.471,1.529,14.379,14.379,0,0,0,4.55,5.356,62.3,62.3,0,0,0,6.6,4.658,62.145,62.145,0,0,0,6.6-4.658,16.141,16.141,0,0,0,3.67-3.756,10.264,10.264,0,0,0,.727-1.262,6.121,6.121,0,0,0,.09-5.6,8.127,8.127,0,0,0-1.357-1.907c-3.777-4.039-7.9-.575-9.734,1.418-1.83-1.993-5.955-5.458-9.733-1.418A6.321,6.321,0,0,0,154.807,239.7Z" transform="translate(-154.738 -232.383)" fill="#f54536"/>
                  </g>
                </g>
              </g>
            </g>
          </g>
        </g>
        <g id="Group_41" data-name="Group 41" transform="translate(0 0)">
          <g id="Group_40" data-name="Group 40">
            <g id="Group_39" data-name="Group 39">
              <g id="Group_38" data-name="Group 38">
                <g id="Group_37" data-name="Group 37">
                  <g id="Group_36" data-name="Group 36">
                    <path id="Path_5" data-name="Path 5" d="M163.32,248.862a40.32,40.32,0,0,1-5.088-3.512c-.552-.42-1.073-.817-1.546-1.165h0c-1.13-.832-4.841-3.839-5.188-7.6a6.65,6.65,0,0,1,2.028-5.249,5.421,5.421,0,0,1,4-1.938h.023c2.462.012,4.68,1.928,5.873,3.189,1.195-1.261,3.416-3.178,5.877-3.189h.021a5.422,5.422,0,0,1,3.995,1.938,6.65,6.65,0,0,1,2.028,5.249c-.346,3.763-4.059,6.77-5.188,7.6-.472.347-.992.745-1.544,1.163a40.3,40.3,0,0,1-5.091,3.514.218.218,0,0,1-.1.023A.223.223,0,0,1,163.32,248.862Zm5.977-19.035c-2.41.01-4.618,2.022-5.72,3.219a.215.215,0,0,1-.318,0c-1.1-1.2-3.3-3.208-5.716-3.219h-.021a5.007,5.007,0,0,0-3.68,1.8,6.239,6.239,0,0,0-1.914,4.914c.33,3.584,3.921,6.488,5.013,7.293.476.351,1,.748,1.551,1.169a41.772,41.772,0,0,0,4.923,3.42A41.732,41.732,0,0,0,168.343,245c.552-.42,1.075-.817,1.55-1.168,1.093-.805,4.683-3.71,5.013-7.293a6.232,6.232,0,0,0-1.914-4.914,5,5,0,0,0-3.679-1.8ZM156.813,244.01Z" transform="translate(-151.473 -229.395)" fill="#333" stroke="#333" stroke-width="0.5"/>
                  </g>
                </g>
              </g>
            </g>
          </g>
        </g>
      </g>
      <g id="Group_127" data-name="Group 127" transform="translate(12.418 1.805)">
        <g id="Group_60" data-name="Group 60" transform="translate(11.493 1.283)">
          <g id="Group_59" data-name="Group 59">
            <g id="Group_58" data-name="Group 58">
              <g id="Group_57" data-name="Group 57">
                <g id="Group_56" data-name="Group 56">
                  <g id="Group_55" data-name="Group 55">
                    <path id="Path_6" data-name="Path 6" d="M446.41,146.794c1.193-1.292,1.065-3.272.468-3.434-.551-.149-.581.42-.91,1.018a.94.94,0,0,1-.853.552s-1.17.212-.346,1.366S446.295,146.919,446.41,146.794Z" transform="translate(-444.474 -143.336)" fill="#f9a528"/>
                  </g>
                </g>
              </g>
            </g>
          </g>
        </g>
        <g id="Group_72" data-name="Group 72" transform="translate(11.277 1.064)">
          <g id="Group_71" data-name="Group 71">
            <g id="Group_70" data-name="Group 70">
              <g id="Group_69" data-name="Group 69">
                <g id="Group_68" data-name="Group 68">
                  <g id="Group_67" data-name="Group 67">
                    <path id="Path_8" data-name="Path 8" d="M443,144.426a1.658,1.658,0,0,1-1.187-.817,1.2,1.2,0,0,1-.278-1.144,1.074,1.074,0,0,1,.762-.561.237.237,0,0,1,.055,0,.735.735,0,0,0,.646-.44,4.489,4.489,0,0,0,.2-.425c.172-.4.366-.858.958-.7a.837.837,0,0,1,.517.636,3.605,3.605,0,0,1-.883,3.154h0a1.031,1.031,0,0,1-.726.3A.61.61,0,0,1,443,144.426Zm.471-.592a3.14,3.14,0,0,0,.785-2.74c-.064-.224-.156-.323-.215-.338-.2-.055-.252,0-.446.45-.061.141-.129.3-.219.464a1.167,1.167,0,0,1-1.017.665h0a.632.632,0,0,0-.42.293c-.088.215.077.515.229.729a1.287,1.287,0,0,0,.862.636.6.6,0,0,0,.445-.16Z" transform="translate(-441.476 -140.304)" fill="#333" stroke="#333" stroke-width="0.5"/>
                  </g>
                </g>
              </g>
            </g>
          </g>
        </g>
        <g id="Group_78" data-name="Group 78" transform="translate(0.215 0.216)">
          <g id="Group_77" data-name="Group 77">
            <g id="Group_76" data-name="Group 76">
              <g id="Group_75" data-name="Group 75">
                <g id="Group_74" data-name="Group 74">
                  <g id="Group_73" data-name="Group 73">
                    <path id="Path_9" data-name="Path 9" d="M289.347,134.242a7.291,7.291,0,0,1,.9,3.189c.145,1.987-.243,3.5,1.156,3.452,2.1-.08,2.5-4.036,2.5-4.036l1.514-.12a6.384,6.384,0,0,0,.843,1.857c.2.5-.56.78-.479,1.14s0,1,2.357.721,2-1.52,2-2.089,1.158-.27,1.639-2.609l.007-.032c.013-.067.024-.134.034-.2.315-2.3-1.542-5.074-5.154-6.377a11.559,11.559,0,0,0-7.673.16,1.255,1.255,0,0,0-.7.777C288.013,130.825,288.14,132.14,289.347,134.242Z" transform="translate(-288.164 -128.543)" fill="#f9a528"/>
                  </g>
                </g>
              </g>
            </g>
          </g>
        </g>
        <g id="Group_84" data-name="Group 84" transform="translate(6.143 5.262)">
          <g id="Group_83" data-name="Group 83">
            <g id="Group_82" data-name="Group 82">
              <g id="Group_81" data-name="Group 81">
                <g id="Group_80" data-name="Group 80">
                  <g id="Group_79" data-name="Group 79">
                    <path id="Path_10" data-name="Path 10" d="M371.5,201.622l-1.179.093.1-2.93c.59-.7,1.863,0,1.863,0C371.144,199.356,371.5,201.622,371.5,201.622Z" transform="translate(-370.32 -198.473)" fill="#fff"/>
                  </g>
                </g>
              </g>
            </g>
          </g>
        </g>
        <g id="Group_102" data-name="Group 102" transform="translate(0 0)">
          <g id="Group_101" data-name="Group 101">
            <g id="Group_100" data-name="Group 100">
              <g id="Group_99" data-name="Group 99">
                <g id="Group_98" data-name="Group 98">
                  <g id="Group_97" data-name="Group 97">
                    <path id="Path_13" data-name="Path 13" d="M287.761,138.044c-.425-.4-.435-1.165-.448-2.127a8.451,8.451,0,0,0-.916-4.343c-1.337-2.327-1.328-3.643-1.086-4.337a1.473,1.473,0,0,1,.834-.92h0l.005,0a11.8,11.8,0,0,1,7.82-.16,8.916,8.916,0,0,1,4.239,3.01,4.9,4.9,0,0,1,1.014,3.849,3.108,3.108,0,0,1-1.389,2.321c-.209.139-.245.175-.245.245,0,.054,0,.121.009.192.039.643.11,1.84-2.2,2.113-2.2.26-2.481-.259-2.58-.813,0-.026-.009-.052-.014-.076a.743.743,0,0,1,.279-.646c.185-.208.266-.32.211-.46a3.524,3.524,0,0,0-.273-.5,3.818,3.818,0,0,1-.548-1.21l-1.143.091c-.109.807-.668,3.973-2.683,4.05h-.079A1.123,1.123,0,0,1,287.761,138.044Zm5.107-4.123a3.151,3.151,0,0,0,.524,1.245,3.855,3.855,0,0,1,.306.562.855.855,0,0,1-.289.909c-.076.085-.19.214-.18.264.007.029.012.061.018.093a.43.43,0,0,0,.258.394,3.91,3.91,0,0,0,1.845.065c1.9-.225,1.852-1.052,1.816-1.657,0-.077-.009-.149-.009-.218,0-.314.223-.462.438-.605a2.692,2.692,0,0,0,1.2-2.047,4.473,4.473,0,0,0-.939-3.507,8.485,8.485,0,0,0-4.037-2.858,11.329,11.329,0,0,0-7.512.155l-.007,0a1.055,1.055,0,0,0-.586.66c-.174.5-.268,1.678,1.053,3.979a8.936,8.936,0,0,1,.974,4.553c.011.86.021,1.54.313,1.818a.761.761,0,0,0,.575.16c1.885-.071,2.287-3.8,2.29-3.841a.216.216,0,0,1,.2-.194l1.514-.12h.017A.218.218,0,0,1,292.869,133.921Z" transform="translate(-285.187 -125.552)" fill="#333" stroke="#333" stroke-width="0.5"/>
                  </g>
                </g>
              </g>
            </g>
          </g>
        </g>
        <g id="Group_108" data-name="Group 108" transform="translate(7.105 4.686)">
          <g id="Group_107" data-name="Group 107">
            <g id="Group_106" data-name="Group 106">
              <g id="Group_105" data-name="Group 105">
                <g id="Group_104" data-name="Group 104">
                  <g id="Group_103" data-name="Group 103">
                    <path id="Path_14" data-name="Path 14" d="M384.013,194.42a.2.2,0,0,0,.07-.012.218.218,0,0,0,.135-.275h0a2.84,2.84,0,0,1,.155-2.088,2.565,2.565,0,0,1,1.844-1.127.217.217,0,1,0-.083-.425A2.971,2.971,0,0,0,384,191.832a3.24,3.24,0,0,0-.188,2.442A.217.217,0,0,0,384.013,194.42Z" transform="translate(-383.65 -190.49)" fill="#333" stroke="#333" stroke-width="0.5"/>
                  </g>
                </g>
              </g>
            </g>
          </g>
        </g>
        <g id="Group_114" data-name="Group 114" transform="translate(5.735 3.909)">
          <g id="Group_113" data-name="Group 113">
            <g id="Group_112" data-name="Group 112">
              <g id="Group_111" data-name="Group 111">
                <g id="Group_110" data-name="Group 110">
                  <g id="Group_109" data-name="Group 109">
                    <path id="Path_15" data-name="Path 15" d="M364.893,184.552a.215.215,0,0,0,.212-.177c.214-1.166.376-4.289.383-4.421a.217.217,0,0,0-.433-.022c0,.032-.167,3.227-.377,4.365a.216.216,0,0,0,.174.252A.26.26,0,0,0,364.893,184.552Z" transform="translate(-364.675 -179.725)" fill="#333" stroke="#333" stroke-width="0.5"/>
                  </g>
                </g>
              </g>
            </g>
          </g>
        </g>
        <g id="Group_120" data-name="Group 120" transform="translate(8.001 4.025)">
          <g id="Group_119" data-name="Group 119">
            <g id="Group_118" data-name="Group 118">
              <g id="Group_117" data-name="Group 117">
                <g id="Group_116" data-name="Group 116">
                  <g id="Group_115" data-name="Group 115">
                    <path id="Path_16" data-name="Path 16" d="M396.323,182.985a.164.164,0,0,0,.045-.005.217.217,0,0,0,.166-.258,1.3,1.3,0,0,1,.161-1.016.217.217,0,0,0-.308-.3,1.731,1.731,0,0,0-.276,1.411A.218.218,0,0,0,396.323,182.985Z" transform="translate(-396.067 -181.337)" fill="#333" stroke="#333" stroke-width="0.5"/>
                  </g>
                </g>
              </g>
            </g>
          </g>
        </g>
      </g>
      <g id="Group_253" data-name="Group 253" transform="translate(0 0)">
        <g id="Group_133" data-name="Group 133" transform="translate(0.216 4.475)">
          <g id="Group_132" data-name="Group 132">
            <g id="Group_131" data-name="Group 131">
              <g id="Group_130" data-name="Group 130">
                <g id="Group_129" data-name="Group 129">
                  <g id="Group_128" data-name="Group 128">
                    <path id="Path_18" data-name="Path 18" d="M116.564,168.567a3.385,3.385,0,0,1,.011.367c-.032,1.495-.989,4.112,1.52,4.585a1.4,1.4,0,0,0,.443,0,2.241,2.241,0,0,0,.4-.094,3,3,0,0,0,1.064-.645,3.849,3.849,0,0,0,.526-.6,6.473,6.473,0,0,0,1.065-3.261c.3-3.358-1.975-6.519-3.6-6.356a2.064,2.064,0,0,0-.745.195,2,2,0,0,0-.967,1.439,5.61,5.61,0,0,0-.079,2.7c.066.3.147.579.216.858A4.936,4.936,0,0,1,116.564,168.567Z" transform="translate(-116.075 -162.562)" fill="#a3401f"/>
                  </g>
                </g>
              </g>
            </g>
          </g>
        </g>
        <g id="Group_145" data-name="Group 145" transform="translate(0 4.261)">
          <g id="Group_144" data-name="Group 144">
            <g id="Group_143" data-name="Group 143">
              <g id="Group_142" data-name="Group 142">
                <g id="Group_141" data-name="Group 141">
                  <g id="Group_140" data-name="Group 140">
                    <path id="Path_20" data-name="Path 20" d="M115.275,170.976c-2.214-.418-1.968-2.394-1.787-3.837.044-.351.086-.683.092-.965a4.817,4.817,0,0,0-.224-1.407,5.943,5.943,0,0,1-.063-3.369,2.007,2.007,0,0,1,1.9-1.8h0a2.456,2.456,0,0,1,1.867.866,7.487,7.487,0,0,1,1.965,5.724c-.218,2.447-1.165,3.643-1.921,4.215a2.677,2.677,0,0,1-1.569.6A1.445,1.445,0,0,1,115.275,170.976Zm-.039-10.947c-.619.062-1.233.282-1.523,1.47a5.5,5.5,0,0,0,.061,3.156,5.187,5.187,0,0,1,.238,1.528c-.006.305-.05.647-.1,1.01-.221,1.765-.247,3.039,1.437,3.357a2.1,2.1,0,0,0,1.487-.491c.686-.52,1.548-1.619,1.751-3.908a7.029,7.029,0,0,0-1.839-5.379,2.181,2.181,0,0,0-1.42-.748C115.3,160.024,115.268,160.026,115.236,160.029Z" transform="translate(-113.081 -159.593)" fill="#333" stroke="#333" stroke-width="0.5"/>
                  </g>
                </g>
              </g>
            </g>
          </g>
        </g>
        <g id="Group_162" data-name="Group 162" transform="translate(0.699 0.369)">
          <g id="Group_156" data-name="Group 156" transform="translate(0.218 0.215)">
            <g id="Group_155" data-name="Group 155">
              <g id="Group_154" data-name="Group 154">
                <g id="Group_153" data-name="Group 153">
                  <g id="Group_152" data-name="Group 152">
                    <path id="Path_22" data-name="Path 22" d="M126.812,118.907l.135.146c.141.156.263.3.369.444,1.186,1.56.435,2.2,1.7,3.255l.086.07c.1.082.216.166.346.253,1.463.995,5.938,1.259,8.491-1.658a7.9,7.9,0,0,0,1.9-5.641,7.571,7.571,0,0,0-1.425-4.189q-.115-.149-.253-.305a8.172,8.172,0,0,0-1.784-1.5,6.983,6.983,0,0,0-7.9.172,5.652,5.652,0,0,0-2.211,2.778,6.839,6.839,0,0,0-.316,1.132C125.571,115.84,125.885,117.927,126.812,118.907Z" transform="translate(-125.792 -108.64)" fill="#f9a528"/>
                  </g>
                </g>
              </g>
            </g>
          </g>
          <g id="Group_161" data-name="Group 161">
            <g id="Group_160" data-name="Group 160">
              <g id="Group_159" data-name="Group 159">
                <g id="Group_158" data-name="Group 158">
                  <g id="Group_157" data-name="Group 157">
                    <path id="Path_23" data-name="Path 23" d="M126.519,120.484c-.133-.09-.251-.176-.36-.264-.031-.025-.062-.05-.089-.074a2.58,2.58,0,0,1-.968-1.633,3.892,3.892,0,0,0-.763-1.657c-.1-.139-.225-.282-.357-.429-.042-.047-.086-.094-.132-.143h0c-.954-1.009-1.323-3.111-.919-5.232a7.024,7.024,0,0,1,.327-1.168A5.907,5.907,0,0,1,125.552,107a7.21,7.21,0,0,1,8.136-.174,8.37,8.37,0,0,1,1.831,1.54c.091.1.179.209.262.316a7.794,7.794,0,0,1,1.47,4.311,8.123,8.123,0,0,1-1.958,5.795,7.349,7.349,0,0,1-4.794,2.369,8.556,8.556,0,0,1-.909.049A5.836,5.836,0,0,1,126.519,120.484Zm-.729-13.12a5.4,5.4,0,0,0-2.127,2.674,6.688,6.688,0,0,0-.306,1.1c-.373,1.959-.041,3.955.807,4.853.049.051.094.1.139.15.141.156.27.31.381.458a4.31,4.31,0,0,1,.839,1.817,2.17,2.17,0,0,0,.827,1.4c.026.023.053.044.08.066.1.08.208.159.332.244a6.013,6.013,0,0,0,3.692.6,6.919,6.919,0,0,0,4.514-2.223,7.687,7.687,0,0,0,1.851-5.488,7.352,7.352,0,0,0-1.38-4.066c-.078-.1-.16-.2-.245-.3a7.887,7.887,0,0,0-1.736-1.459,7.029,7.029,0,0,0-3.7-1.1A7.165,7.165,0,0,0,125.789,107.364Z" transform="translate(-122.769 -105.655)" fill="#333"/>
                  </g>
                </g>
              </g>
            </g>
          </g>
        </g>
        <g id="Group_180" data-name="Group 180" transform="translate(4.224 7.72)">
          <g id="Group_179" data-name="Group 179">
            <g id="Group_178" data-name="Group 178">
              <g id="Group_177" data-name="Group 177">
                <g id="Group_176" data-name="Group 176">
                  <g id="Group_175" data-name="Group 175">
                    <path id="Path_25" data-name="Path 25" d="M171.615,214.571c.1.082.216.166.346.253,1.463.995,5.938,1.259,8.491-1.658a7.892,7.892,0,0,0,1.9-5.641c-.538.955-1.276,2.3-2.167,2.684-1.478.642-4.251-1.1-5.944-.1C173,210.844,173.556,213.985,171.615,214.571Z" transform="translate(-171.615 -207.525)" fill="#fff"/>
                  </g>
                </g>
              </g>
            </g>
          </g>
        </g>
        <g id="Group_192" data-name="Group 192" transform="translate(0.802 0.37)">
          <g id="Group_191" data-name="Group 191">
            <g id="Group_190" data-name="Group 190">
              <g id="Group_189" data-name="Group 189">
                <g id="Group_188" data-name="Group 188">
                  <g id="Group_187" data-name="Group 187">
                    <path id="Path_27" data-name="Path 27" d="M127.64,120.427a2.956,2.956,0,0,1-1.117-1.786,5.683,5.683,0,0,0-1.195-2.253c-1.383-1.58-1.228-4.273-.919-5.615a6.06,6.06,0,0,1,2.547-3.757A7.267,7.267,0,0,1,133.279,106a8.279,8.279,0,0,1,3.906,2.7c1.731,2.234,2.521,6.991-.495,10.113a8,8,0,0,1-5.8,2.441A5.978,5.978,0,0,1,127.64,120.427Zm-.448-13.048h0a5.63,5.63,0,0,0-2.362,3.492c-.272,1.175-.448,3.781.823,5.233a6.114,6.114,0,0,1,1.281,2.406,2.587,2.587,0,0,0,.952,1.562,7.245,7.245,0,0,0,8.492-1.561c2.847-2.946,2.1-7.438.464-9.547a7.5,7.5,0,0,0-5.662-2.865A7.23,7.23,0,0,0,127.192,107.379Z" transform="translate(-124.2 -105.67)" fill="#333" stroke="#333" stroke-width="0.5"/>
                  </g>
                </g>
              </g>
            </g>
          </g>
        </g>
        <g id="Group_198" data-name="Group 198" transform="translate(6.566 10.711)">
          <g id="Group_197" data-name="Group 197" transform="translate(0 0)">
            <g id="Group_196" data-name="Group 196" transform="translate(0 0)">
              <g id="Group_195" data-name="Group 195" transform="translate(0)">
                <g id="Group_194" data-name="Group 194">
                  <g id="Group_193" data-name="Group 193">
                    <ellipse id="Ellipse_4" data-name="Ellipse 4" cx="1.037" cy="0.673" rx="1.037" ry="0.673" transform="matrix(0.847, -0.532, 0.532, 0.847, 0, 1.103)" fill="#333" stroke="#333" stroke-width="0.5"/>
                  </g>
                </g>
              </g>
            </g>
          </g>
        </g>
        <g id="Group_210" data-name="Group 210" transform="translate(7.009 11.843)">
          <g id="Group_209" data-name="Group 209">
            <g id="Group_208" data-name="Group 208">
              <g id="Group_207" data-name="Group 207">
                <g id="Group_206" data-name="Group 206">
                  <g id="Group_205" data-name="Group 205">
                    <path id="Path_29" data-name="Path 29" d="M213.236,264.75a.913.913,0,0,1-.02.113.711.711,0,0,1-.035.109.6.6,0,0,1-.111.182.742.742,0,0,1-.356.211,1.858,1.858,0,0,1-.456.067,4.132,4.132,0,0,1-.489-.014.219.219,0,0,0-.229.163c-.008.028-.018.069-.03.1s-.025.074-.039.11c-.028.072-.058.145-.093.213a1.524,1.524,0,0,1-.253.37.817.817,0,0,1-.36.224,1.072,1.072,0,0,1-.461.018h0a.073.073,0,0,0-.082.062.074.074,0,0,0,.04.076,1.178,1.178,0,0,0,.262.094.9.9,0,0,0,.291.019.919.919,0,0,0,.292-.073,1.11,1.11,0,0,0,.259-.154,1.622,1.622,0,0,0,.373-.44,2.279,2.279,0,0,0,.128-.251c.018-.043.036-.087.052-.131a1.451,1.451,0,0,0,.044-.141l-.229.163a3.066,3.066,0,0,0,.556.012,1.7,1.7,0,0,0,.567-.132,1.144,1.144,0,0,0,.265-.161.837.837,0,0,0,.2-.246.805.805,0,0,0,.091-.3.738.738,0,0,0-.031-.3.072.072,0,0,0-.091-.047.071.071,0,0,0-.049.06Z" transform="translate(-210.216 -264.673)" fill="#333" stroke="#333" stroke-width="0.5"/>
                  </g>
                </g>
              </g>
            </g>
          </g>
        </g>
        <g id="Group_216" data-name="Group 216" transform="translate(3.782 10.96)">
          <g id="Group_215" data-name="Group 215">
            <g id="Group_214" data-name="Group 214">
              <g id="Group_213" data-name="Group 213">
                <g id="Group_212" data-name="Group 212">
                  <g id="Group_211" data-name="Group 211">
                    <path id="Path_30" data-name="Path 30" d="M165.712,253.582h.022a1.522,1.522,0,0,0,1.4-.869.217.217,0,0,0-.41-.141c-.01.025-.2.5-1.031.579a.216.216,0,0,0-.194.237A.22.22,0,0,0,165.712,253.582Z" transform="translate(-165.495 -252.427)" fill="#333" stroke="#333" stroke-width="0.5"/>
                  </g>
                </g>
              </g>
            </g>
          </g>
        </g>
        <g id="Group_222" data-name="Group 222" transform="translate(9.152 8.23)">
          <g id="Group_221" data-name="Group 221">
            <g id="Group_220" data-name="Group 220">
              <g id="Group_219" data-name="Group 219">
                <g id="Group_218" data-name="Group 218">
                  <g id="Group_217" data-name="Group 217">
                    <path id="Path_31" data-name="Path 31" d="M240.142,215.752h.022a1.522,1.522,0,0,0,1.4-.869.217.217,0,0,0-.41-.141c-.01.025-.2.5-1.031.579a.216.216,0,0,0,.023.432Z" transform="translate(-239.925 -214.597)" fill="#333" stroke="#333" stroke-width="0.5"/>
                  </g>
                </g>
              </g>
            </g>
          </g>
        </g>
        <g id="Group_234" data-name="Group 234" transform="translate(7.984 0.214)">
          <g id="Group_233" data-name="Group 233">
            <g id="Group_232" data-name="Group 232">
              <g id="Group_231" data-name="Group 231">
                <g id="Group_230" data-name="Group 230">
                  <g id="Group_229" data-name="Group 229">
                    <path id="Path_33" data-name="Path 33" d="M227.286,103.869c5.2,1.987,6.748,10.245,1.758,10.454-4.875.2-1.918-4.631-3.19-6.07s-2.923-3.637-1.685-4.384A3.358,3.358,0,0,1,227.286,103.869Z" transform="translate(-223.731 -103.497)" fill="#a3401f"/>
                  </g>
                </g>
              </g>
            </g>
          </g>
        </g>
        <g id="Group_252" data-name="Group 252" transform="translate(7.768)">
          <g id="Group_251" data-name="Group 251">
            <g id="Group_250" data-name="Group 250">
              <g id="Group_249" data-name="Group 249">
                <g id="Group_248" data-name="Group 248">
                  <g id="Group_247" data-name="Group 247">
                    <path id="Path_36" data-name="Path 36" d="M223.736,111.072c-.762-.789-.666-2.072-.579-3.2.069-.919.135-1.787-.247-2.218-1.564-1.769-2.291-3.093-2.162-3.936a1.063,1.063,0,0,1,.527-.777,3.645,3.645,0,0,1,3.307-.017h0a7.977,7.977,0,0,1,4.875,8.022,3.166,3.166,0,0,1-3.185,2.85c-.1,0-.2.007-.3.007A2.962,2.962,0,0,1,223.736,111.072Zm.692-9.748a3.208,3.208,0,0,0-2.928-.017.641.641,0,0,0-.324.472c-.075.488.222,1.507,2.059,3.585a3.525,3.525,0,0,1,.354,2.538c-.082,1.092-.169,2.222.459,2.87a2.8,2.8,0,0,0,2.206.589,2.733,2.733,0,0,0,2.776-2.487,7.515,7.515,0,0,0-4.6-7.549Z" transform="translate(-220.733 -100.537)" fill="#333" stroke="#333" stroke-width="0.5"/>
                  </g>
                </g>
              </g>
            </g>
          </g>
        </g>
      </g>
    </g>
  </g>
  <text id="GIVE_A_HEART" data-name="GIVE A HEART" transform="translate(48 27)" fill="#333" font-size="20" font-family="Merriweather-Bold, Merriweather" font-weight="700"><tspan x="0" y="0">give a heart</tspan></text>
</svg>
